ply
format ascii 1.0
comment Exported by Aspose.3D 23.9.0
element vertex 189
property float x
property float y
property float z
property float nx
property float ny
property float nz
property float u
property float v
element face 197
property list uchar int vertex_index
end_header
0.15292690694332123 -0.008410791866481304 -0.24889244139194489 0 -1.5005964542069705E-06 -1 0.6006506681442261 0.7061683535575867
0.15292690694332123 0.008409732021391392 -0.24889244139194489 0 1.5006116882432252E-06 -1 0.5857528448104858 0.7254570722579956
0.14477932453155518 0.0077696251682937145 -0.24889244139194489 0 3.2517784802621463E-06 -0.9999999403953552 0.59483802318573 0.7317898273468018
0.16107463836669922 0.0077696265652775764 -0.24889244139194489 0 2.4438517698399664E-07 -1 0.5775424838066101 0.7181531190872192
0.14400647580623627 -4.5391868752631126E-07 -0.24889244139194489 0 -4.432986096258862E-12 -1 0.6026965379714966 0.7243742346763611
0.1618473380804062 -4.5257172587298555E-07 -0.24889244139194489 0 6.767089926612568E-12 -1 0.5827727913856506 0.7089189291000366
0.14477932453155518 -0.0077706859447062016 -0.24889244139194489 0 -2.7194298581889598E-06 -1 0.6094991564750671 0.7152073383331299
0.16107463836669922 -0.00777068454772234 -0.24889244139194489 0 -7.766475960124808E-07 -1 0.5896849632263184 0.7001892924308777
0.15276050567626953 -4.5325776909521664E-07 -0.23962852358818054 0 1.3574895092460793E-06 -1 0.5744650959968567 0.5919654369354248
0.2377123236656189 -0.3304923474788666 -0.00045570958172902465 0.32112902532898924 -0.7478840351104736 0.321106352084664 0.6914479732513428 0.8889263868331909
0.23864105343818665 -0.32956355810165405 -0.00045570952352136374 0.7479140758514404 -0.32110747453039856 0.32109783946405734 0.34606234211241826 0.5490904748439789
0.2377123236656189 -0.32956355810165405 0.00047309292131103575 0.321134108806962 -0.32111060664313884 0.7478746920824051 0.3457240859279409 0.5494288057088852
0.23864096403121948 0.3295624852180481 -0.0004556979110930115 0.7479104697704315 0.32110393289262085 0.32110515201886614 0.48084011673927307 0.2085779309272766
0.23771224915981293 0.3304912745952606 -0.0004556978528853506 0.32112535769732786 0.7478818297386169 0.3211123420041204 0.48185497522354126 0.20925451070070267
0.23771224915981293 0.3295624852180481 0.00047310456284321845 0.3211267812026273 0.3211121256623879 0.7478805780410767 0.4808401018381119 0.20976195484399796
-0.2458680421113968 -0.33049240708351135 -0.00045572867384180427 -0.32111269105589846 -0.7478912174701691 0.32111545160061183 0.6914479732513428 0.5366453528404236
-0.2458680421113968 -0.32956358790397644 0.0004730738583020866 -0.32110815892088984 -0.3211167351888027 0.7478945553302765 0.3457240264688153 0.549428790807724
-0.2467968463897705 -0.32956358790397644 -0.00045572861563414335 -0.7478870451450348 -0.3211147417276017 0.32111761083494983 0.3460622828861233 0.5497671067714691
-0.24586808681488037 0.33049124479293823 -0.00045571691589429975 -0.32111971144882845 0.7478921562433243 0.3211077191598619 0.48185500502586365 0.5628887414932251
-0.2467968910932541 0.3295624554157257 -0.00045571697410196066 -0.7478940039873123 0.3211141745598205 0.32111120102955226 0.48084011673927307 0.5635653734207153
-0.24586808681488037 0.3295624554157257 0.00047308547073043883 -0.32112114896647825 0.3211116297556553 0.7478867024183273 0.4808400794863701 0.5623812675476074
-0.21564966440200806 -0.3002740740776062 -0.22867761552333832 0.3211003433524362 0.7478870302438736 -0.3211320787668228 0.8922284245491028 0.5586589574813843
-0.21657845377922058 -0.29934537410736084 -0.22867761552333832 0.7478619813919067 0.32111684026119036 -0.32114070653915405 0.45745931286364794 0.6611640155315399
-0.21564966440200806 -0.29934537410736084 -0.22774897515773773 0.25687286542403526 0.25688365284012277 -0.7983390808105469 0.5450897283852101 0.6414749264717102
-0.2058747261762619 -0.29049891233444214 -0.22867760062217712 -0.2522338585835371 -0.6789070963859558 -0.40290267765522003 0.9462088048458099 0.332657165825367
-0.20773202180862427 -0.29142773151397705 -0.22774896025657654 -0.20178291192027162 -0.2017074869780373 -0.8637444496154786 0.55099291279912 0.647242820262909
-0.20680338144302368 -0.2895702123641968 -0.22867760062217712 -0.6790093630552292 -0.2521467253114338 -0.4028875380754471 0.7305571916513145 0.3858117964118719
-0.20680341124534607 0.28956905007362366 -0.22867761552333832 -0.6789479628205299 0.25213659112199593 -0.40291139483451843 0.7255145162343979 0.6502518653869629
-0.20773206651210785 0.2914266586303711 -0.22774896025657654 -0.20172675152904757 0.20170975485304085 -0.8637607216835023 0.5478731334209442 0.6766523241996766
-0.2058747559785843 0.2904978394508362 -0.22867761552333832 -0.25217249513796425 0.6789004877209663 -0.40292301774024963 0.7837170958518982 0.5923874825239182
-0.21564969420433044 0.3002729117870331 -0.22867760062217712 0.3210852009669747 -0.7479158490896225 -0.32111844420433044 0.6272751986980438 0.596235379576683
-0.21564969420433044 0.2993442714214325 -0.22774894535541534 0.25686896894746475 -0.2568979778956603 -0.798328173160553 0.5941267251968384 0.6303987383842469
-0.21657849848270416 0.2993442714214325 -0.22867760062217712 0.7478467971086502 -0.3211368268549748 -0.32113583385944366 0.5151171162724495 0.7083935439586639
-0.24586808681488037 0.3304912745952606 -0.23633569478988647 -0.32115847656582197 0.7479088604450226 -0.3210520855419432 0.6110695153474808 0.6055091917514801
-0.24586808681488037 0.3295624852180481 -0.23726435005664825 -0.2569201563050932 0.2569027761202577 -0.798272716999054 0.585564935207367 0.6320286870002747
-0.2467968910932541 0.3295624852180481 -0.23633569478988647 -0.7479230612516403 0.3211469513730876 -0.3210493934337961 0.5243909358978271 0.6921878159046173
-0.2458680123090744 -0.33049237728118896 -0.23633567988872528 -0.32120835840002115 -0.7478378713130951 -0.32107326135390934 0.8632829785346985 0.5366454124450684
-0.24679681658744812 -0.32956355810165405 -0.23633567988872528 -0.7479730248451233 -0.32107603425217945 -0.321070535875446 0.4319798449287191 0.6356845796108246
-0.2458680123090744 -0.32956355810165405 -0.23726433515548706 -0.2569552925971369 -0.2568506141916984 -0.7982895612716675 0.5189170679310336 0.6166886568069458
0.2377123236656189 -0.32956352829933167 -0.23726433515548706 0.25695688448874704 -0.2568038391815634 -0.7983346939086915 0.34626040441216904 0.3769397780299187
0.23864105343818665 -0.32956352829933167 -0.23633567988872528 0.7479760944843292 -0.3210164758872196 -0.321126785288941 0.21632817429781426 0.2499580318108201
0.2377123236656189 -0.3304923176765442 -0.23633567988872528 0.3212071800301928 -0.7477783709764481 -0.3211339784922327 0.6474621893139645 0.6758805504068732
0.23771226406097412 0.330491304397583 -0.23633567988872528 0.3211195837512175 0.7478626370429993 -0.32113716768807166 0.6110695376992226 0.16663412284106016
0.23864099383354187 0.3295625150203705 -0.23633567988872528 0.7478885501623154 0.32110083070286066 -0.32113009726206343 0.5243908613920212 0.07995546329766512
0.23771226406097412 0.3295625150203705 -0.23726433515548706 0.2568838860342254 0.2568744611990752 -0.7983373403549194 0.5855648875236511 0.1401146188378334
0.19864752888679504 -0.2895701825618744 -0.2363356649875641 0.7479482144117355 -0.321119678327872 -0.32105153799057007 0.697365015745163 0.10578951239585876
0.19771888852119446 -0.29049891233444214 -0.2363356649875641 0.3211714303376514 -0.7478894591331482 -0.3210585415363312 0.6983798742294312 0.10511293262243271
0.19771888852119446 -0.2895701825618744 -0.23726432025432587 0.3211630532841583 -0.32112128206041257 -0.7478351593017578 0.6983798891305923 0.10629695281386375
0.20749396085739136 -0.3002740740776062 -0.23633567988872528 -0.25214159760895116 0.6789074838161469 -0.4029329866170883 0.8866497874259949 0.8669127821922302
0.2084226906299591 -0.29934534430503845 -0.23633567988872528 -0.6788986846804619 0.2521466545851645 -0.402936726808548 0.45466993656009436 0.44048284739255905
0.2093515694141388 -0.3012028634548187 -0.23726433515548706 -0.20169758701856041 0.20170472748786922 -0.8637834310531617 0.5398480221629143 0.526716049015522
0.20842266082763672 0.2993443012237549 -0.23633567988872528 -0.6788867712020874 -0.25215722545071273 -0.40293721854686737 0.45882648229599 0.013376290909945965
0.20749393105506897 0.30027294158935547 -0.23633567988872528 -0.252129642960651 -0.6789182648062706 -0.4029332250356674 0.5684490501880646 0.1226604338735342
0.2093515396118164 0.3012017607688904 -0.23726433515548706 -0.2016949841509991 -0.20170621387496654 -0.8637836217880249 0.5463891863822937 0.10093891806900501
0.19864749908447266 0.28956905007362366 -0.23633569478988647 0.7479181587696075 0.32107581465499235 -0.3211255520582199 0.6970266699790955 0.5283603072166443
0.19771884381771088 0.28956905007362366 -0.23726435005664825 0.3211257354873056 0.3210761033699234 -0.7479176819324493 0.698210671544075 0.5283603221178055
0.19771884381771088 0.29049786925315857 -0.23633569478988647 0.3211413433574126 0.7478370666503906 -0.3211410641670227 0.6977032423019409 0.5293752253055573
-0.20680338144302368 -0.2895702123641968 -0.23633569478988647 -0.7478914856910706 -0.321103818719795 -0.32112421095371246 0.9935755878686905 0.10612786747515202
-0.2058747261762619 -0.2895702123641968 -0.23726433515548706 -0.32111077510310215 -0.3211008518683167 -0.7479078322649002 0.9925607293844223 0.1064661480486393
-0.2058747261762619 -0.29049891233444214 -0.23633569478988647 -0.321116613757388 -0.7478735595941544 -0.32112930715084076 0.9927298277616501 0.105282137170434
-0.21657845377922058 -0.29934537410736084 -0.23633567988872528 0.6788768619298935 0.2521513428397357 -0.4029456377029419 0.4546700185164809 0.6583746373653412
-0.21564966440200806 -0.3002740740776062 -0.23633570969104767 0.2521244632798161 0.6789121180772781 -0.4029371738433838 0.8866497278213501 0.5586589574813843
-0.21750742197036743 -0.3012028932571411 -0.23726433515548706 0.2016847560352499 0.20170382440424747 -0.8637905597686768 0.539848081022501 0.6374842882156373
-0.21657849848270416 0.2993442714214325 -0.23633569478988647 0.6788686215877533 -0.2521636609129727 -0.4029442369937897 0.4588266909122467 0.7587670087814331
-0.21750745177268982 0.301201730966568 -0.23726435005664825 0.20168643503081257 -0.2017054539889422 -0.8637892365455628 0.5463892817497253 0.6712043642997743
-0.21564969420433044 0.3002729117870331 -0.23633567988872528 0.2521162641076016 -0.6789247542619705 -0.40293551981449127 0.5684491097927094 0.6494828164577484
-0.2058747559785843 0.28956905007362366 -0.23726435005664825 -0.3211270375591879 0.3210793376220016 -0.7479130923748016 0.9925607293844223 0.5283603668212891
-0.20680341124534607 0.28956905007362366 -0.23633569478988647 -0.747916579246521 0.3210819289036486 -0.3211209625005722 0.9937447905540466 0.5283604264259338
-0.2058747559785843 0.2904978394508362 -0.23633569478988647 -0.3211417386509492 0.7478432208299637 -0.3211345672607422 0.993068128824234 0.5293752551078796
0.19771888852119446 -0.29049891233444214 -0.22867758572101593 0.2521560980099764 -0.6788994744420052 -0.40293116867542267 0.7487914115190506 0.2895985748618841
0.19864752888679504 -0.2895701825618744 -0.22867758572101593 0.6789261922240257 -0.25213906948262466 -0.4029214233160019 0.5291664502583444 0.07638365027906602
0.1995762586593628 -0.29142770171165466 -0.22774893045425415 0.2017128349307342 -0.20170503891959726 -0.8637715578079224 0.5106636382639408 0.36450012000277643
0.20749396085739136 -0.3002740740776062 -0.22867760062217712 -0.32110292803657137 0.7478828877210617 -0.32113371789455414 0.8922284245491028 0.8669127821922302
0.20749396085739136 -0.29934534430503845 -0.22774894535541534 -0.25687650753515 0.2568849309397585 -0.7983341217041016 0.545089702308178 0.5227254105731846
0.2084226906299591 -0.29934534430503845 -0.22867760062217712 -0.7478723526000977 0.3211126428443203 -0.3211345076560974 0.45745927933603525 0.4376934845931828
0.20749393105506897 0.30027294158935547 -0.22867760062217712 -0.32109907144151073 -0.7479051947593689 -0.3211152106523514 0.6272752210497856 0.1759078549221158
0.20842266082763672 0.2993443012237549 -0.22867760062217712 -0.747868537902832 -0.3211262274187794 -0.32112476229667664 0.5151170194149017 0.06374981836415827
0.20749393105506897 0.2993443012237549 -0.22774894535541534 -0.25688040401165324 -0.2568954242589889 -0.7983193159103394 0.5941267371177673 0.1417445419356227
0.19864749908447266 0.28956905007362366 -0.22867761552333832 0.6789484620094299 0.25212655182188737 -0.40291817486286163 0.631512314081192 0.3962702304363015
0.19771884381771088 0.29049786925315857 -0.22867761552333832 0.2521783235556736 0.6788904145359993 -0.40292440354824066 0.6930117756128311 0.4581079073250294
0.1995762139558792 0.2914266586303711 -0.22774896025657654 0.20172481635923134 0.20170401323396803 -0.8637661457061768 0.5954156398773194 0.2011630071559921
0.13477063179016113 -4.5461595732376736E-07 -0.2372644692659378 -0.5311924616495768 2.085681787870423E-06 0.7361720403035481 0.6045156518618265 0.7031132181485493
0.13409611582756042 -4.5466688902706665E-07 -0.23815375566482544 -0.8764538764953613 3.282092279732751E-06 0.15563993155956268 0.622490406036377 0.745154082775116
0.13711430132389069 -4.544390321825631E-07 -0.24800315499305725 -0.7543538510799408 2.668847628228832E-06 -0.5632161498069763 0.6105620861053467 0.7319316864013672
0.13845326006412506 -4.5433793616211915E-07 -0.24889244139194489 -0.2762942910194397 8.318256732309237E-07 -0.9167270958423615 0.608391284942627 0.7297124862670898
0.13615261018276215 -0.006948696915060282 -0.2372644692659378 -0.4907667239507039 -0.2032759394717587 0.736162543296814 0.6145373582839966 0.6931706468264262
0.13552968204021454 -0.007206875365227461 -0.23815375566482544 -0.8097387552261353 -0.3354168236255646 0.1556335836648941 0.6317765116691589 0.7328711748123169
0.1397073119878769 -0.006281581707298756 -0.24889244139194489 -0.27487075328826904 -0.13619565450005666 -0.8948380351066589 0.6132526993751526 0.7220420837402344
0.13831791281700134 -0.006051784381270409 -0.24800315499305725 -0.717394232749939 -0.2812734916806221 -0.5518369227647781 0.6155591011047363 0.7243450880050659
0.14008846879005432 -0.012839045375585556 -0.2372644692659378 -0.3756215174992879 -0.3756185180418067 0.7361529270807902 0.6217276453971863 0.6828791697820027
0.1396116316318512 -0.013315882533788681 -0.23815375566482544 -0.6197550892829895 -0.6197535991668701 0.1556263118982315 0.6365211606025696 0.7179323434829712
0.1425112634897232 -0.010466151870787144 -0.24889244139194489 -0.30465855201085407 -0.3069188598060464 -0.8407087326049805 0.6148787140846252 0.7147525548934937
0.14174573123455048 -0.011181787587702274 -0.24800315499305725 -0.5679900944232941 -0.5667107254266739 -0.5270563662052155 0.617751955986023 0.715144157409668
0.14597882330417633 -0.016774894669651985 -0.2372644692659378 -0.20328120390574136 -0.49076503579540776 0.7361618677775065 0.6252302328745524 0.673304537932078
0.1457207202911377 -0.017397912219166756 -0.23815375566482544 -0.3354121893644333 -0.8097407519817352 0.15563221275806427 0.6362826824188232 0.7018665671348572
0.14659404754638672 -0.013202662579715252 -0.24889244139194489 -0.1381794661283493 -0.27592232143376805 -0.8934137225151062 0.6135925054550171 0.7070767283439636
0.14687572419643402 -0.014609522186219692 -0.24800315499305725 -0.2803068161010742 -0.7175000011920929 -0.5519990175962448 0.6162703037261963 0.7050594091415405
0.15292690694332123 -0.018156882375478745 -0.2372644692659378 -2.7394052419064485E-07 -0.5311999128731462 0.7361621856689453 0.6170008381207783 0.660993734995524
0.15292690694332123 -0.018831320106983185 -0.23815375566482544 -6.316187750599056E-07 -0.8764596283435822 0.15563292801380157 0.6206957399845123 0.680058091878891
0.15292690694332123 -0.014467310160398483 -0.24889244139194489 -4.968302391716861E-07 -0.2752887296070412 -0.9173929691314697 0.6074362993240356 0.6968654990196228
0.15292690694332123 -0.01581328548491001 -0.24800315499305725 -9.185556848478882E-07 -0.7533470094203949 -0.5638817101716995 0.609637439250946 0.6939613521099091
0.15987515449523926 -0.016774894669651985 -0.2372644692659378 0.2032902439435323 -0.49076761866334806 0.736154278119405 0.6013518969217936 0.6601271231969197
0.16013309359550476 -0.017397910356521606 -0.23815375566482544 0.3354034721851349 -0.8097498416900635 0.15562859177589417 0.5960000157356262 0.6738691329956055
0.1592598408460617 -0.013202661648392677 -0.24889244139194489 0.1381731480360031 -0.27591328254959535 -0.8934217095375061 0.5960935950279236 0.6941590309143066
0.15897823870182037 -0.014609520323574543 -0.24800315499305725 0.28030428290367126 -0.7174946963787079 -0.5520016551017761 0.5973357558250427 0.6913023591041565
0.1657654196023941 -0.012839042581617832 -0.2372644692659378 0.3756082057952881 -0.375616054383156 0.7361677090326945 0.5919559597969055 0.6659837961196899
0.1662423312664032 -0.013315879739820957 -0.23815375566482544 0.6197476387023926 -0.6197500824928284 0.15563936531543732 0.5822652578353882 0.6766886115074158
0.1633426994085312 -0.010466150008141994 -0.24889244139194489 0.30464649200439453 -0.3068991502126058 -0.8407265742619832 0.5886919498443604 0.6950734257698059
0.1641083061695099 -0.0111817866563797 -0.24800315499305725 0.5679825097322464 -0.5666967779397964 -0.5270679295063019 0.5877589583396912 0.6926026344299316
0.16970118880271912 -0.006948694121092558 -0.2372644692659378 0.49075480302174884 -0.20327506527030198 0.7361774444580078 0.5819313724835713 0.6742035547892252
0.17032428085803986 -0.00720687210559845 -0.23815375566482544 0.8097338974475861 -0.3354082554578781 0.15564703941345215 0.5698439478874207 0.6834210157394409
0.16614650189876556 -0.006281579844653606 -0.24889244139194489 0.2748594880104065 -0.13618318736553192 -0.8948498368263245 0.5824028253555298 0.6984314918518066
0.16753605008125305 -0.006051782518625259 -0.24800315499305725 0.7173849642276764 -0.2812644988298416 -0.5518438518047333 0.579864501953125 0.6968265771865845
0.17108333110809326 -4.5187442765382E-07 -0.2372644692659378 0.531197190284729 2.073776502224215E-06 0.7361657619476318 0.5725124279657999 0.6841286818186442
0.17175769805908203 -4.5182352437223017E-07 -0.23815375566482544 0.8764587342739105 2.903659151343163E-06 0.1556394249200821 0.5601505637168884 0.6938414573669434
0.16740070283412933 -4.5215247723717766E-07 -0.24889244139194489 0.2762841582298279 9.614504961064085E-07 -0.9167337417602539 0.5764053463935852 0.7048157453536987
0.1687396615743637 -4.520513527950243E-07 -0.24800315499305725 0.7543449997901917 2.429955884508672E-06 -0.5632187128067017 0.5739375352859497 0.7031841278076172
0.16970118880271912 0.006947636138647795 -0.2372644692659378 0.4907534122467041 0.20328237548744946 0.7361754973729451 0.5650353829065958 0.6947140892346699
0.17032428085803986 0.0072056627832353115 -0.23815375566482544 0.809738427400589 0.33540143072605133 0.15564705431461334 0.554516077041626 0.707037091255188
0.16614650189876556 0.006280369125306606 -0.24889244139194489 0.27484872937202454 0.13617883622646332 -0.8948588073253632 0.5731806755065918 0.7126937508583069
0.16753605008125305 0.006050724536180496 -0.24800315499305725 0.7173782885074615 0.2812694311141968 -0.551845982670784 0.5707374215126038 0.7111020684242249
0.1657654196023941 0.012837833724915981 -0.2372644692659378 0.3756030797958374 0.37559519147153964 0.7361919085184733 0.5606607794761658 0.7046758532524109
0.1662423312664032 0.013314823620021343 -0.23815375566482544 0.6197381913661957 0.6197403073310852 0.15565823018550873 0.553803026676178 0.7214657664299011
0.1633426994085312 0.01046493835747242 -0.24889244139194489 0.30463657776514685 0.3068857391675313 -0.8407406409581502 0.5729569792747498 0.7192917466163635
0.1641083061695099 0.011180729605257511 -0.24800315499305725 0.5679714232683182 0.5666908770799637 -0.5270776599645615 0.570435643196106 0.7195807695388794
0.15987515449523926 0.016773683950304985 -0.2372644692659378 0.20328364769617716 0.49075116649544503 0.7361776828765869 0.5601796905199686 0.7127661307652791
0.16013309359550476 0.017396854236721992 -0.23815375566482544 0.33538898825645447 0.8097413778305054 0.15564602613449097 0.5583124756813049 0.7353197932243347
0.1592598408460617 0.013201601803302765 -0.24889244139194489 0.13817085325717926 0.2759086489677429 -0.8934250175952911 0.575167179107666 0.7253286242485046
0.15897823870182037 0.014608463272452354 -0.24800315499305725 0.2802976295351982 0.7175003886222839 -0.5519997179508209 0.5733078122138977 0.7275556921958923
0.15292690694332123 0.01815582625567913 -0.2372644692659378 -3.990012752789577E-07 0.5312001897422102 0.7361617883046467 0.5637964804967244 0.7179127931594849
0.15292690694332123 0.018830111250281334 -0.23815375566482544 -9.225475565699526E-07 0.8764601051807404 0.15563341975212097 0.567528486251831 0.7467294931411743
0.15292690694332123 0.01446625031530857 -0.24889244139194489 -5.162729621588369E-07 0.2752996074669909 -0.9173858165740967 0.5807152390480042 0.7317948937416077
0.15292690694332123 0.01581207476556301 -0.24800315499305725 -1.1388373764020798E-06 0.7533580958843231 -0.5638737082481384 0.5788041949272156 0.7340620756149292
0.14597882330417633 0.016773683950304985 -0.2372644692659378 -0.20327345530192056 0.4907468749610212 0.7361879746119181 0.5711500644683838 0.7194465597470601
0.1457207202911377 0.017396852374076843 -0.23815375566482544 -0.33539704978466034 0.8097309172153473 0.15565142035484314 0.5803321599960327 0.7541120648384094
0.14659404754638672 0.01320160087198019 -0.24889244139194489 -0.13817650079727173 0.27591864019586865 -0.8934181332588196 0.5882949829101562 0.735779881477356
0.14687572419643402 0.01460846234112978 -0.24800315499305725 -0.28029991686344147 0.717504620552063 -0.5519980043172836 0.5863593220710754 0.7380765676498413
0.14008846879005432 0.012837831862270832 -0.2372644692659378 -0.37561333179473877 0.37559924458738436 0.7361785173416138 0.5812995235125223 0.7171939015388489
0.1396116316318512 0.01331482082605362 -0.23815375566482544 -0.6197433769702911 0.6197448968887329 0.15564608573913574 0.5950250029563904 0.756443977355957
0.1425112634897232 0.010464937426149845 -0.24889244139194489 -0.3046514789263407 0.30689672665312173 -0.840726375579834 0.5947757363319397 0.7365971207618713
0.14174573123455048 0.011180727742612362 -0.24800315499305725 -0.5679812133312225 0.5666980743408203 -0.5270689725875854 0.5949001312255859 0.7391961216926575
0.13615261018276215 0.006947633344680071 -0.2372644692659378 -0.4907643397649129 0.20328736240939566 0.7361596425374348 0.5929356217384338 0.711479902267456
0.13552968204021454 0.007205659989267588 -0.23815375566482544 -0.8097423315048218 0.33541347086429596 0.15563268959522247 0.6097117066383362 0.7533248662948608
0.1397073119878769 0.006280367262661457 -0.24889244139194489 -0.27486205101013184 0.13618321200749506 -0.8948483765125275 0.6012884378433228 0.7348486185073853
0.13831791281700134 0.006050722673535347 -0.24800315499305725 -0.7173876464366913 0.28127439320087433 -0.5518402308225632 0.6033132076263428 0.7370082139968872
0.15186932682991028 0.006510928273200989 -0.2479637861251831 0.36057359352707863 -0.4360690524184019 -0.34344159066677094 0.5779110640287399 0.6381538361310959
0.15095356106758118 0.005320895463228226 -0.2479637861251831 0.7328789383172989 -0.22560599353164434 -0.40551939606666565 0.580581471323967 0.6371906399726868
0.14990757405757904 0.006511843763291836 -0.24889244139194489 0.2691694587469101 -0.22669974141622334 -0.8309155821800233 0.5875988483428956 0.7029580473899841
0.1508118063211441 -4.534048798632284E-07 -0.2479637861251831 0.8269402980804443 -3.54345914388432E-07 -0.3782988488674164 0.5912914574146271 0.6599752604961395
0.14973987638950348 -4.5348585331339564E-07 -0.24889244139194489 0.3269403278827667 -1.5761601492633032E-07 -0.878298819065094 0.5964618921279907 0.7191384434700012
0.15186932682991028 -0.006511989049613476 -0.2479637861251831 0.11055812984704971 0.436063092449972 -0.34344286402915003 0.5961434841156006 0.6480382680892944
0.14990757405757904 -0.00651305727660656 -0.24889244139194489 0.2692079722881317 0.22666428856707627 -0.8309540510177613 0.6023690104484558 0.7115128636360168
0.15095356106758118 -0.005321956239640713 -0.2479637861251831 0.7328784316778183 0.22560083912685513 -0.4055206137979823 0.595991387963295 0.6507200449705124
0.15186932682991028 0.006510928273200989 -0.2479637861251831 -0.17256845910836205 -0.6486657222115308 -0.29165566274393484 0.5811096131801605 0.6668883264064789
0.15282177925109863 0.007375339046120644 -0.24889244139194489 -0.003157041035592556 -0.477012848854065 -0.7639351129531861 0.586722731590271 0.724454939365387
0.15365169942378998 0.006510928738862276 -0.2479637861251831 -0.07535668839503273 -0.643587823709181 -0.2990150075044511 0.5784988105297089 0.6662600934505463
0.15365169942378998 0.006510928738862276 -0.2479637861251831 -0.6078570298850536 -0.4307671298586637 -0.35046293934192363 0.5783149600028992 0.6660027503967285
0.15568295121192932 0.0065145911648869514 -0.24889244139194489 -0.2627923458814621 -0.2208854683400091 -0.8396660208702088 0.5843728184700012 0.7211734652519226
0.15456745028495789 0.005320895928889513 -0.2479637861251831 -0.7223803848028183 -0.2245651250705123 -0.4128611385822296 0.5764601677656174 0.6642838418483734
0.15584805607795715 -4.530246826561779E-07 -0.24889244139194489 -0.3153468668460846 -1.66926716907434E-07 -0.8880158960819244 0.5896005630493164 0.7138077020645142
0.15470920503139496 -4.5311062990549544E-07 -0.2479637861251831 -0.8153468370437622 -3.6189273089348717E-07 -0.3880159258842468 0.5737281143665314 0.6562390029430389
0.15365169942378998 -0.006511988118290901 -0.2479637861251831 -0.35784170031547546 0.4307629729307383 -0.35048435628414154 0.5935360640287399 0.6142984330654144
0.15456745028495789 -0.005321955308318138 -0.2479637861251831 -0.7223783582448959 0.22455960605293512 -0.4128633439540863 0.5836403667926788 0.6137721091508865
0.15568295121192932 -0.006515802815556526 -0.24889244139194489 -0.26281480193138124 0.2208456286047863 -0.839715850353241 0.5950484156608582 0.6812130689620972
0.15186932682991028 -0.006511989049613476 -0.2479637861251831 0.07741594410946107 0.6925564706325531 -0.29167956575760634 0.5941781848669052 0.6168379336595535
0.15365169942378998 -0.006511988118290901 -0.2479637861251831 -0.3870881274342537 0.7845011651515961 -0.29902154821669535 0.5935360640287399 0.6142984330654144
0.15282177925109863 -0.007376398891210556 -0.24889244139194489 -0.0031570829451084137 0.47700698375701905 -0.76394282579422 0.5985529780387878 0.6830209255218507
0.15186932682991028 0.006510928273200989 -0.24055732786655426 0.0633003152460958 -0.6136428972088606 -0.3372787158574937 0.5735418796539307 0.5990115404129028
0.15365169942378998 0.006510929204523563 -0.24055732786655426 -0.31329876561451897 -0.6136427183949262 -0.33727909235983766 0.5719515085220337 0.598721444606781
0.15276050567626953 0.005804599728435278 -0.23962852358818054 1.2849214726884385E-06 -0.44001699686050416 -0.8079032301902771 0.5730706453323364 0.596863329410553
0.1517409235239029 -4.533347635060636E-07 -0.23962852358818054 0.35350683331489563 5.556893398761531E-07 -0.8535999357700348 0.5756365060806274 0.5925320386886597
0.1508118063211441 -4.534049367066473E-07 -0.24055732786655426 0.8535068035125732 -3.1130686295455234E-07 -0.3535999357700348 0.5778830647468567 0.5940223932266235
0.15470920503139496 -4.531106583272049E-07 -0.24055732786655426 -0.853508859872818 -3.101135348515527E-07 -0.35359787940979004 0.5703115463256836 0.5919653177261353
0.15378010272979736 -4.531808031060791E-07 -0.23962852358818054 -0.353508859872818 5.57152304736519E-07 -0.8535979092121124 0.573194146156311 0.5915863513946533
0.15186932682991028 -0.0065119885839521885 -0.24055732786655426 -0.341168113052845 0.6575516164302826 -0.3374522862432059 0.5808228850364685 0.5860824584960938
0.15276050567626953 -0.005805811379104853 -0.23962852358818054 8.952851430876763E-07 0.4400359642454532 -0.8078839302062989 0.5783309936523438 0.5857810378074646
0.15365169942378998 -0.006511988118290901 -0.24055732786655426 -0.06333706870081812 0.7545672953128815 -0.3372624875954324 0.5794261693954468 0.583188533782959
0.15186932682991028 0.006510928273200989 -0.24055732786655426 0.16416120529174805 -0.4500293244921476 -0.3127609382069796 0.5735418796539307 0.5990115404129028
0.1518886238336563 0.005548709072172642 -0.23962852358818054 0.3927556723356247 -0.30226988438516855 -0.7395298182964325 0.5737866759300232 0.5969201326370239
0.15095356106758118 0.005320895463228226 -0.24055732786655426 0.7910101264715195 -0.29176030308008194 -0.3127627819776535 0.5749962329864502 0.5982494950294495
0.15365169942378998 0.006510929204523563 -0.24055732786655426 -0.41426584497094154 -0.4500586499773771 -0.3126955032348633 0.5719515085220337 0.598721444606781
0.15456745028495789 0.005320895928889513 -0.24055732786655426 -0.7910192906856537 -0.2917560194619 -0.3127564340829849 0.5708927512168884 0.5974208116531372
0.15363240242004395 0.005548710003495216 -0.23962852358818054 -0.39286021515727043 -0.30230134865269065 -0.7394633591175079 0.572381317615509 0.5965639352798462
0.15186932682991028 -0.0065119885839521885 -0.24055732786655426 0.4141893722116947 0.4500282446540087 -0.31275412023909865 0.5808228850364685 0.5860824584960938
0.15095356106758118 -0.005321955773979425 -0.24055732786655426 0.7910105139017105 0.2917599896900356 -0.31276240528472243 0.5806804895401001 0.5884934663772583
0.1518886238336563 -0.0055497693829238415 -0.23962852358818054 0.392784271389246 0.30226942877987995 -0.7395224720239639 0.5787968039512634 0.5869671106338501
0.15365169942378998 -0.006511988118290901 -0.24055732786655426 -0.6641967557370663 0.4500204364455431 -0.31275178889400657 0.5794261693954468 0.583188533782959
0.15363240242004395 -0.005549768917262554 -0.23962852358818054 -0.3927915655076504 0.302263715579727 -0.7395192086696625 0.5772837847471237 0.5840408951044083
0.15456745028495789 -0.005321955308318138 -0.24055732786655426 -0.7910195887088776 0.29175581177696586 -0.31275607645511627 0.5760786235332489 0.5824354588985443
4 40 43 12 10
4 73 23 25 71
4 45 54 78 70
4 33 18 13 42
4 11 14 20 16
4 17 19 35 37
4 60 63 32 22
4 51 49 74 76
4 53 64 34 44
4 62 50 39 38
4 28 25 23 31
4 64 62 38 34
4 65 52 75 30
4 58 66 55 47
4 50 53 44 39
4 48 61 21 72
4 56 68 29 79
16 81 85 89 93 97 101 105 109 113 117 121 125 129 133 137 141
4 59 46 69 24
4 31 77 80 28
4 77 73 71 80
4 67 57 26 27
4 142 144 83 82
4 87 6 95 91
4 94 96 100 98
4 6 0 99 95
4 0 7 103 99
4 7 111 107 103
4 110 112 116 114
4 5 115 111 7
4 3 119 115 5
4 127 123 119 3
4 126 128 132 130
4 131 127 3 1
4 135 131 1 2
4 139 135 2 143
4 154 147 2 1
4 84 4 6 87
4 82 83 88 86
4 138 140 144 142
4 134 136 140 138
4 130 132 136 134
4 122 124 128 126
4 86 88 92 90
4 147 149 4 2
4 145 153 167 177
4 118 120 124 122
4 143 2 4 84
4 149 151 6 4
4 163 159 5 7
4 114 116 120 118
4 90 92 96 94
4 98 100 104 102
4 102 104 108 106
4 106 108 112 110
4 148 146 179 171
4 158 160 172 181
4 152 148 171 184
4 160 162 188 172
4 164 150 183 174
4 155 156 180 168
4 161 165 176 186
4 169 182 173 8
4 170 8 175 185
4 178 169 8 170
4 8 173 187 175
4 166 163 7 0
4 151 166 0 6
4 159 157 3 5
4 157 154 1 3
3 9 10 11
3 12 13 14
3 15 16 17
3 18 19 20
3 21 22 23
3 24 25 26
3 27 28 29
3 30 31 32
3 33 34 35
3 36 37 38
3 39 40 41
3 42 43 44
3 45 46 47
3 48 49 50
3 51 52 53
3 54 55 56
3 57 58 59
3 60 61 62
3 63 64 65
3 66 67 68
3 69 70 71
3 72 73 74
3 75 76 77
3 78 79 80
3 145 146 147
3 150 151 152
3 153 154 155
3 156 157 158
3 161 162 163
3 164 165 166
3 167 168 169
3 174 175 176
3 177 178 179
3 180 181 182
3 183 184 185
3 186 187 188
4 15 9 11 16
4 10 12 14 11
4 13 18 20 14
4 19 17 16 20
4 36 15 17 37
4 18 33 35 19
4 34 38 37 35
4 41 36 38 39
4 33 42 44 34
4 43 40 39 44
4 9 41 40 10
4 42 13 12 43
4 30 75 77 31
4 24 69 71 25
4 27 26 25 28
4 72 21 23 73
4 22 32 31 23
4 51 76 75 52
4 66 58 57 67
4 67 27 29 68
4 62 64 63 60
4 69 46 45 70
4 50 62 61 48
4 58 47 46 59
4 64 53 52 65
4 56 79 78 54
4 55 66 68 56
4 53 50 49 51
4 47 55 54 45
4 79 29 28 80
4 76 74 73 77
4 70 78 80 71
4 32 63 65 30
4 60 22 21 61
4 74 49 48 72
4 59 24 26 57
4 82 86 85 81
4 88 83 84 87
4 86 90 89 85
4 92 88 87 91
4 90 94 93 89
4 96 92 91 95
4 94 98 97 93
4 100 96 95 99
4 98 102 101 97
4 104 100 99 103
4 102 106 105 101
4 108 104 103 107
4 106 110 109 105
4 112 108 107 111
4 110 114 113 109
4 116 112 111 115
4 114 118 117 113
4 120 116 115 119
4 118 122 121 117
4 124 120 119 123
4 122 126 125 121
4 128 124 123 127
4 126 130 129 125
4 132 128 127 131
4 130 134 133 129
4 136 132 131 135
4 134 138 137 133
4 140 136 135 139
4 138 142 141 137
4 144 140 139 143
4 142 82 81 141
4 83 144 143 84
4 183 150 152 184
4 161 186 188 162
4 153 145 147 154
4 156 155 154 157
4 146 148 149 147
4 157 159 160 158
4 148 152 151 149
4 166 151 150 164
4 159 163 162 160
4 163 166 165 161
4 169 178 177 167
4 182 169 168 180
4 178 170 171 179
4 181 172 173 182
4 170 185 184 171
4 174 183 185 175
4 172 188 187 173
4 186 176 175 187
4 145 177 179 146
4 155 168 167 153
4 164 174 176 165
4 180 156 158 181
4 15 36 41 9
